<?xml version="1.0" encoding="UTF-8" standalone="no"?>
<!DOCTYPE svg PUBLIC "-//W3C//DTD SVG 1.1//EN" "http://www.w3.org/Graphics/SVG/1.1/DTD/svg11.dtd">
<svg width="100%" height="100%" viewBox="0 0 2881 490" version="1.1" xmlns="http://www.w3.org/2000/svg" xmlns:xlink="http://www.w3.org/1999/xlink" xml:space="preserve" xmlns:serif="http://www.serif.com/" style="fill-rule:evenodd;clip-rule:evenodd;stroke-linejoin:round;stroke-miterlimit:2;">
    <g transform="matrix(1,0,0,1,-1177.699615,-1636.094372)">
        <g transform="matrix(4.972873,0,0,4.972873,2617.788511,1880.679662)">
            <g transform="matrix(1,0,0,1,-289.588896,-49.183897)">
                <clipPath id="_clip1">
                    <rect x="0" y="0" width="579.178" height="98.368"/>
                </clipPath>
                <g clip-path="url(#_clip1)">
                    <g transform="matrix(4.166667,0,0,4.166667,-11.905558,10.393832)">
                        <g transform="matrix(1,0,0,1,0,-6.1)">
                            <g transform="matrix(0.32,0,0,0.32,0,0)">
                                <path d="M86.406,22.676C83.179,19.461 78.808,17.653 74.25,17.653C69.695,17.653 65.324,19.461 62.098,22.676L32.266,52.508C31.047,53.731 31.047,55.707 32.266,56.93L36.684,61.348C37.907,62.567 39.883,62.567 41.106,61.348L70.938,31.516L70.934,31.516C71.813,30.637 73.008,30.145 74.25,30.145C75.493,30.145 76.688,30.637 77.567,31.516C79.395,33.348 79.399,36.313 77.567,38.145L47.735,67.977C44.614,71.094 40.317,72.746 35.911,72.528C31.505,72.309 27.395,70.238 24.595,66.828C22.165,63.692 20.978,59.77 21.263,55.812C21.544,51.855 23.278,48.14 26.134,45.382L45.529,25.991C46.748,24.773 46.748,22.792 45.529,21.573L41.111,17.155C39.888,15.937 37.912,15.937 36.689,17.155L17.521,36.323C12.107,41.687 9.021,48.964 8.931,56.585C8.841,64.203 11.751,71.554 17.033,77.046C22.33,82.21 29.451,85.085 36.849,85.042C44.251,85 51.337,82.042 56.576,76.816L85.951,47.441C88.994,44.511 90.912,40.605 91.373,36.406C91.849,31.316 90.025,26.281 86.408,22.676L86.406,22.676Z" style="fill:rgb(138,67,254);fill-rule:nonzero;"/>
                            </g>
                        </g>
                    </g>
                    <g transform="matrix(4.166667,0,0,4.166667,150.594442,72.291668)">
                        <path d="M7.82,0.24C6.993,0.24 6.243,0.067 5.57,-0.28C4.897,-0.62 4.36,-1.087 3.96,-1.68C3.56,-2.273 3.343,-2.953 3.31,-3.72L3.31,-7.82C3.343,-8.593 3.563,-9.28 3.97,-9.88C4.377,-10.48 4.913,-10.953 5.58,-11.3C6.247,-11.653 6.993,-11.83 7.82,-11.83C8.893,-11.83 9.853,-11.567 10.7,-11.04C11.553,-10.513 12.223,-9.793 12.71,-8.88C13.197,-7.967 13.44,-6.933 13.44,-5.78C13.44,-4.647 13.197,-3.623 12.71,-2.71C12.223,-1.797 11.553,-1.077 10.7,-0.55C9.853,-0.023 8.893,0.24 7.82,0.24ZM4.51,4.85L1.39,4.85L1.39,-11.59L4.54,-11.59L4.54,-8.54L4.01,-5.74L4.51,-2.93L4.51,4.85ZM7.27,-2.66C7.85,-2.66 8.363,-2.793 8.81,-3.06C9.257,-3.327 9.603,-3.693 9.85,-4.16C10.097,-4.633 10.22,-5.183 10.22,-5.81C10.22,-6.417 10.097,-6.957 9.85,-7.43C9.603,-7.903 9.257,-8.27 8.81,-8.53C8.363,-8.797 7.85,-8.93 7.27,-8.93C6.71,-8.93 6.207,-8.797 5.76,-8.53C5.313,-8.27 4.967,-7.903 4.72,-7.43C4.467,-6.957 4.34,-6.417 4.34,-5.81C4.34,-5.183 4.467,-4.633 4.72,-4.16C4.967,-3.693 5.31,-3.327 5.75,-3.06C6.19,-2.793 6.697,-2.66 7.27,-2.66ZM20.35,0.24C19.297,0.24 18.347,-0.023 17.5,-0.55C16.647,-1.077 15.98,-1.797 15.5,-2.71C15.02,-3.623 14.78,-4.647 14.78,-5.78C14.78,-6.933 15.02,-7.967 15.5,-8.88C15.98,-9.793 16.647,-10.513 17.5,-11.04C18.347,-11.567 19.297,-11.83 20.35,-11.83C21.183,-11.83 21.927,-11.663 22.58,-11.33C23.24,-10.99 23.767,-10.52 24.16,-9.92C24.547,-9.32 24.757,-8.647 24.79,-7.9L24.79,-3.72C24.757,-2.953 24.547,-2.273 24.16,-1.68C23.767,-1.087 23.24,-0.62 22.58,-0.28C21.927,0.067 21.183,0.24 20.35,0.24ZM20.93,-2.66C21.81,-2.66 22.52,-2.953 23.06,-3.54C23.607,-4.127 23.88,-4.883 23.88,-5.81C23.88,-6.417 23.757,-6.957 23.51,-7.43C23.263,-7.903 22.92,-8.27 22.48,-8.53C22.04,-8.797 21.523,-8.93 20.93,-8.93C20.35,-8.93 19.84,-8.797 19.4,-8.53C18.96,-8.27 18.617,-7.903 18.37,-7.43C18.123,-6.957 18,-6.417 18,-5.81C18,-5.183 18.123,-4.633 18.37,-4.16C18.617,-3.693 18.96,-3.327 19.4,-3.06C19.84,-2.793 20.35,-2.66 20.93,-2.66ZM26.83,0L23.71,0L23.71,-3.12L24.22,-5.95L23.71,-8.74L23.71,-11.59L26.83,-11.59L26.83,0ZM36.05,0.24C35.217,0.24 34.463,0.067 33.79,-0.28C33.117,-0.62 32.58,-1.087 32.18,-1.68C31.78,-2.273 31.567,-2.953 31.54,-3.72L31.54,-7.82C31.567,-8.593 31.787,-9.28 32.2,-9.88C32.607,-10.48 33.14,-10.953 33.8,-11.3C34.467,-11.653 35.217,-11.83 36.05,-11.83C37.123,-11.83 38.083,-11.567 38.93,-11.04C39.777,-10.513 40.443,-9.793 40.93,-8.88C41.417,-7.967 41.66,-6.933 41.66,-5.78C41.66,-4.647 41.417,-3.623 40.93,-2.71C40.443,-1.797 39.777,-1.077 38.93,-0.55C38.083,-0.023 37.123,0.24 36.05,0.24ZM32.74,4.85L29.62,4.85L29.62,-11.59L32.76,-11.59L32.76,-8.54L32.23,-5.74L32.74,-2.93L32.74,4.85ZM35.5,-2.66C36.073,-2.66 36.583,-2.793 37.03,-3.06C37.477,-3.327 37.827,-3.693 38.08,-4.16C38.327,-4.633 38.45,-5.183 38.45,-5.81C38.45,-6.417 38.327,-6.957 38.08,-7.43C37.827,-7.903 37.477,-8.27 37.03,-8.53C36.583,-8.797 36.073,-8.93 35.5,-8.93C34.94,-8.93 34.433,-8.797 33.98,-8.53C33.533,-8.27 33.187,-7.903 32.94,-7.43C32.693,-6.957 32.57,-6.417 32.57,-5.81C32.57,-5.183 32.693,-4.633 32.94,-4.16C33.187,-3.693 33.53,-3.327 33.97,-3.06C34.41,-2.793 34.92,-2.66 35.5,-2.66ZM49.27,0.24C48.057,0.24 46.977,-0.02 46.03,-0.54C45.09,-1.06 44.343,-1.777 43.79,-2.69C43.237,-3.603 42.96,-4.643 42.96,-5.81C42.96,-6.963 43.227,-7.99 43.76,-8.89C44.3,-9.797 45.033,-10.517 45.96,-11.05C46.887,-11.59 47.92,-11.86 49.06,-11.86C50.18,-11.86 51.167,-11.607 52.02,-11.1C52.873,-10.593 53.547,-9.907 54.04,-9.04C54.527,-8.167 54.77,-7.177 54.77,-6.07C54.77,-5.863 54.757,-5.653 54.73,-5.44C54.71,-5.22 54.667,-4.973 54.6,-4.7L44.86,-4.68L44.86,-7.03L53.14,-7.06L51.86,-6.07C51.833,-6.757 51.71,-7.333 51.49,-7.8C51.277,-8.267 50.967,-8.623 50.56,-8.87C50.147,-9.117 49.647,-9.24 49.06,-9.24C48.433,-9.24 47.887,-9.1 47.42,-8.82C46.96,-8.54 46.607,-8.147 46.36,-7.64C46.107,-7.14 45.98,-6.547 45.98,-5.86C45.98,-5.153 46.113,-4.54 46.38,-4.02C46.647,-3.5 47.027,-3.1 47.52,-2.82C48.013,-2.54 48.59,-2.4 49.25,-2.4C49.843,-2.4 50.38,-2.5 50.86,-2.7C51.34,-2.9 51.753,-3.2 52.1,-3.6L53.95,-1.75C53.39,-1.097 52.707,-0.6 51.9,-0.26C51.093,0.073 50.217,0.24 49.27,0.24ZM59.86,0L56.71,0L56.71,-11.59L59.86,-11.59L59.86,0ZM59.86,-6.41L58.63,-7.22C58.777,-8.647 59.193,-9.773 59.88,-10.6C60.567,-11.42 61.56,-11.83 62.86,-11.83C63.42,-11.83 63.923,-11.74 64.37,-11.56C64.817,-11.373 65.223,-11.073 65.59,-10.66L63.62,-8.4C63.447,-8.593 63.237,-8.737 62.99,-8.83C62.743,-8.93 62.46,-8.98 62.14,-8.98C61.467,-8.98 60.917,-8.767 60.49,-8.34C60.07,-7.913 59.86,-7.27 59.86,-6.41ZM72.6,0.24C71.413,0.24 70.35,-0.023 69.41,-0.55C68.463,-1.077 67.72,-1.797 67.18,-2.71C66.633,-3.623 66.36,-4.647 66.36,-5.78C66.36,-6.933 66.633,-7.967 67.18,-8.88C67.72,-9.793 68.467,-10.517 69.42,-11.05C70.373,-11.59 71.433,-11.86 72.6,-11.86C73.513,-11.86 74.353,-11.69 75.12,-11.35C75.887,-11.017 76.55,-10.537 77.11,-9.91L75.1,-7.87C74.793,-8.21 74.427,-8.467 74,-8.64C73.58,-8.813 73.113,-8.9 72.6,-8.9C72.027,-8.9 71.51,-8.77 71.05,-8.51C70.597,-8.243 70.237,-7.883 69.97,-7.43C69.71,-6.97 69.58,-6.43 69.58,-5.81C69.58,-5.203 69.71,-4.663 69.97,-4.19C70.237,-3.717 70.597,-3.347 71.05,-3.08C71.51,-2.82 72.027,-2.69 72.6,-2.69C73.127,-2.69 73.603,-2.78 74.03,-2.96C74.45,-3.147 74.813,-3.417 75.12,-3.77L77.16,-1.73C76.567,-1.09 75.887,-0.6 75.12,-0.26C74.353,0.073 73.513,0.24 72.6,0.24ZM82.08,0L78.94,0L78.94,-17.35L82.08,-17.35L82.08,0ZM88.03,0L84.86,0L84.86,-11.59L88.03,-11.59L88.03,0ZM86.45,-13.46C85.937,-13.46 85.513,-13.633 85.18,-13.98C84.84,-14.327 84.67,-14.753 84.67,-15.26C84.67,-15.76 84.84,-16.187 85.18,-16.54C85.513,-16.887 85.937,-17.06 86.45,-17.06C86.977,-17.06 87.403,-16.887 87.73,-16.54C88.057,-16.187 88.22,-15.76 88.22,-15.26C88.22,-14.753 88.057,-14.327 87.73,-13.98C87.403,-13.633 86.977,-13.46 86.45,-13.46ZM97.25,0.24C96.417,0.24 95.663,0.067 94.99,-0.28C94.317,-0.62 93.78,-1.087 93.38,-1.68C92.98,-2.273 92.767,-2.953 92.74,-3.72L92.74,-7.82C92.767,-8.593 92.987,-9.28 93.4,-9.88C93.807,-10.48 94.34,-10.953 95,-11.3C95.667,-11.653 96.417,-11.83 97.25,-11.83C98.323,-11.83 99.283,-11.567 100.13,-11.04C100.977,-10.513 101.643,-9.793 102.13,-8.88C102.617,-7.967 102.86,-6.933 102.86,-5.78C102.86,-4.647 102.617,-3.623 102.13,-2.71C101.643,-1.797 100.977,-1.077 100.13,-0.55C99.283,-0.023 98.323,0.24 97.25,0.24ZM93.94,4.85L90.82,4.85L90.82,-11.59L93.96,-11.59L93.96,-8.54L93.43,-5.74L93.94,-2.93L93.94,4.85ZM96.7,-2.66C97.273,-2.66 97.783,-2.793 98.23,-3.06C98.677,-3.327 99.027,-3.693 99.28,-4.16C99.527,-4.633 99.65,-5.183 99.65,-5.81C99.65,-6.417 99.527,-6.957 99.28,-7.43C99.027,-7.903 98.677,-8.27 98.23,-8.53C97.783,-8.797 97.273,-8.93 96.7,-8.93C96.14,-8.93 95.633,-8.797 95.18,-8.53C94.733,-8.27 94.387,-7.903 94.14,-7.43C93.893,-6.957 93.77,-6.417 93.77,-5.81C93.77,-5.183 93.893,-4.633 94.14,-4.16C94.387,-3.693 94.73,-3.327 95.17,-3.06C95.61,-2.793 96.12,-2.66 96.7,-2.66Z" style="fill:white;fill-rule:nonzero;"/>
                    </g>
                </g>
            </g>
        </g>
    </g>
</svg>
