<?xml version="1.0" encoding="UTF-8"?>
<svg xmlns="http://www.w3.org/2000/svg" width="139.00267028808594" height="23.6082706451416" viewBox="2.8573338985443115 -17.350000381469727 139.00267028808594 23.6082706451416">
  <g transform="translate(0, -14.855480670928955)"><g transform="translate(0, -6.100000000000001)"><svg viewBox="0 0 100 100" width="32" height="32"><path d="m86.406 22.676c-3.2266-3.2148-7.5977-5.0234-12.156-5.0234-4.5547 0-8.9258 1.8086-12.152 5.0234l-29.832 29.832c-1.2188 1.2227-1.2188 3.1992 0 4.4219l4.418 4.418c1.2227 1.2188 3.1992 1.2188 4.4219 0l29.832-29.832h-0.003906c0.87891-0.87891 2.0742-1.3711 3.3164-1.3711s2.4375 0.49219 3.3164 1.3711c1.8281 1.832 1.832 4.7969 0 6.6289l-29.832 29.832c-3.1211 3.1172-7.418 4.7695-11.824 4.5508s-8.5156-2.2891-11.316-5.6992c-2.4297-3.1367-3.6172-7.0586-3.332-11.016 0.28125-3.957 2.0156-7.6719 4.8711-10.43l19.395-19.391c1.2188-1.2188 1.2188-3.1992 0-4.418l-4.418-4.418c-1.2227-1.2188-3.1992-1.2188-4.4219 0l-19.168 19.168c-5.4141 5.3633-8.5 12.641-8.5898 20.262-0.089844 7.6172 2.8203 14.969 8.1016 20.461 5.2969 5.1641 12.418 8.0391 19.816 7.9961 7.4023-0.042969 14.488-3 19.727-8.2266l29.375-29.375c3.043-2.9297 4.9609-6.8359 5.4219-11.035 0.47656-5.0898-1.3477-10.125-4.9648-13.73z" fill="#8A43FE"/></svg></g></g>
  <g transform="translate(39, 0)"><path d="M7.82 0.24L7.82 0.24Q6.58 0.24 5.57-0.28Q4.56-0.79 3.96-1.68Q3.36-2.57 3.31-3.72L3.31-3.72L3.31-7.82Q3.36-8.98 3.97-9.88Q4.58-10.78 5.58-11.30Q6.58-11.83 7.82-11.83L7.82-11.83Q9.43-11.83 10.70-11.04Q11.98-10.25 12.71-8.88Q13.44-7.51 13.44-5.78L13.44-5.78Q13.44-4.08 12.71-2.71Q11.98-1.34 10.70-0.55Q9.43 0.24 7.82 0.24ZM4.51 4.85L1.39 4.85L1.39-11.59L4.54-11.59L4.54-8.54L4.01-5.74L4.51-2.93L4.51 4.85ZM7.27-2.66L7.27-2.66Q8.14-2.66 8.81-3.06Q9.48-3.46 9.85-4.16Q10.22-4.87 10.22-5.81L10.22-5.81Q10.22-6.72 9.85-7.43Q9.48-8.14 8.81-8.53Q8.14-8.93 7.27-8.93L7.27-8.93Q6.43-8.93 5.76-8.53Q5.09-8.14 4.72-7.43Q4.34-6.72 4.34-5.81L4.34-5.81Q4.34-4.87 4.72-4.16Q5.09-3.46 5.75-3.06Q6.41-2.66 7.27-2.66Z M20.35 0.24L20.35 0.24Q18.77 0.24 17.50-0.55Q16.22-1.34 15.50-2.71Q14.78-4.08 14.78-5.78L14.78-5.78Q14.78-7.51 15.50-8.88Q16.22-10.25 17.50-11.04Q18.77-11.83 20.35-11.83L20.35-11.83Q21.60-11.83 22.58-11.33Q23.57-10.82 24.16-9.92Q24.74-9.02 24.79-7.90L24.79-7.90L24.79-3.72Q24.74-2.57 24.16-1.68Q23.57-0.79 22.58-0.28Q21.60 0.24 20.35 0.24ZM20.93-2.66L20.93-2.66Q22.25-2.66 23.06-3.54Q23.88-4.42 23.88-5.81L23.88-5.81Q23.88-6.72 23.51-7.43Q23.14-8.14 22.48-8.53Q21.82-8.93 20.93-8.93L20.93-8.93Q20.06-8.93 19.40-8.53Q18.74-8.14 18.37-7.43Q18-6.72 18-5.81L18-5.81Q18-4.87 18.37-4.16Q18.74-3.46 19.40-3.06Q20.06-2.66 20.93-2.66ZM26.83 0L23.71 0L23.71-3.12L24.22-5.95L23.71-8.74L23.71-11.59L26.83-11.59L26.83 0Z M36.05 0.24L36.05 0.24Q34.80 0.24 33.79-0.28Q32.78-0.79 32.18-1.68Q31.58-2.57 31.54-3.72L31.54-3.72L31.54-7.82Q31.58-8.98 32.20-9.88Q32.81-10.78 33.80-11.30Q34.80-11.83 36.05-11.83L36.05-11.83Q37.66-11.83 38.93-11.04Q40.20-10.25 40.93-8.88Q41.66-7.51 41.66-5.78L41.66-5.78Q41.66-4.08 40.93-2.71Q40.20-1.34 38.93-0.55Q37.66 0.24 36.05 0.24ZM32.74 4.85L29.62 4.85L29.62-11.59L32.76-11.59L32.76-8.54L32.23-5.74L32.74-2.93L32.74 4.85ZM35.50-2.66L35.50-2.66Q36.36-2.66 37.03-3.06Q37.70-3.46 38.08-4.16Q38.45-4.87 38.45-5.81L38.45-5.81Q38.45-6.72 38.08-7.43Q37.70-8.14 37.03-8.53Q36.36-8.93 35.50-8.93L35.50-8.93Q34.66-8.93 33.98-8.53Q33.31-8.14 32.94-7.43Q32.57-6.72 32.57-5.81L32.57-5.81Q32.57-4.87 32.94-4.16Q33.31-3.46 33.97-3.06Q34.63-2.66 35.50-2.66Z M49.27 0.24L49.27 0.24Q47.45 0.24 46.03-0.54Q44.62-1.32 43.79-2.69Q42.96-4.06 42.96-5.81L42.96-5.81Q42.96-7.54 43.76-8.89Q44.57-10.25 45.96-11.05Q47.35-11.86 49.06-11.86L49.06-11.86Q50.74-11.86 52.02-11.10Q53.30-10.34 54.04-9.04Q54.77-7.73 54.77-6.07L54.77-6.07Q54.77-5.76 54.73-5.44Q54.70-5.11 54.60-4.70L54.60-4.70L44.86-4.68L44.86-7.03L53.14-7.06L51.86-6.07Q51.82-7.10 51.49-7.80Q51.17-8.50 50.56-8.87Q49.94-9.24 49.06-9.24L49.06-9.24Q48.12-9.24 47.42-8.82Q46.73-8.40 46.36-7.64Q45.98-6.89 45.98-5.86L45.98-5.86Q45.98-4.80 46.38-4.02Q46.78-3.24 47.52-2.82Q48.26-2.40 49.25-2.40L49.25-2.40Q50.14-2.40 50.86-2.70Q51.58-3 52.10-3.60L52.10-3.60L53.95-1.75Q53.11-0.77 51.90-0.26Q50.69 0.24 49.27 0.24Z M59.86 0L56.71 0L56.71-11.59L59.86-11.59L59.86 0ZM59.86-6.41L59.86-6.41L58.63-7.22Q58.85-9.36 59.88-10.60Q60.91-11.83 62.86-11.83L62.86-11.83Q63.70-11.83 64.37-11.56Q65.04-11.28 65.59-10.66L65.59-10.66L63.62-8.40Q63.36-8.69 62.99-8.83Q62.62-8.98 62.14-8.98L62.14-8.98Q61.13-8.98 60.49-8.34Q59.86-7.70 59.86-6.41Z M72.60 0.24L72.60 0.24Q70.82 0.24 69.41-0.55Q67.99-1.34 67.18-2.71Q66.36-4.08 66.36-5.78L66.36-5.78Q66.36-7.51 67.18-8.88Q67.99-10.25 69.42-11.05Q70.85-11.86 72.60-11.86L72.60-11.86Q73.97-11.86 75.12-11.35Q76.27-10.85 77.11-9.91L77.11-9.91L75.10-7.87Q74.64-8.38 74.00-8.64Q73.37-8.90 72.60-8.90L72.60-8.90Q71.74-8.90 71.05-8.51Q70.37-8.11 69.97-7.43Q69.58-6.74 69.58-5.81L69.58-5.81Q69.58-4.90 69.97-4.19Q70.37-3.48 71.05-3.08Q71.74-2.69 72.60-2.69L72.60-2.69Q73.39-2.69 74.03-2.96Q74.66-3.24 75.12-3.77L75.12-3.77L77.16-1.73Q76.27-0.77 75.12-0.26Q73.97 0.24 72.60 0.24Z M82.08 0L78.94 0L78.94-17.35L82.08-17.35L82.08 0Z M88.03 0L84.86 0L84.86-11.59L88.03-11.59L88.03 0ZM86.45-13.46L86.45-13.46Q85.68-13.46 85.18-13.98Q84.67-14.50 84.67-15.26L84.67-15.26Q84.67-16.01 85.18-16.54Q85.68-17.06 86.45-17.06L86.45-17.06Q87.24-17.06 87.73-16.54Q88.22-16.01 88.22-15.26L88.22-15.26Q88.22-14.50 87.73-13.98Q87.24-13.46 86.45-13.46Z M97.25 0.24L97.25 0.24Q96 0.24 94.99-0.28Q93.98-0.79 93.38-1.68Q92.78-2.57 92.74-3.72L92.74-3.72L92.74-7.82Q92.78-8.98 93.40-9.88Q94.01-10.78 95.00-11.30Q96-11.83 97.25-11.83L97.25-11.83Q98.86-11.83 100.13-11.04Q101.40-10.25 102.13-8.88Q102.86-7.51 102.86-5.78L102.86-5.78Q102.86-4.08 102.13-2.71Q101.40-1.34 100.13-0.55Q98.86 0.24 97.25 0.24ZM93.94 4.85L90.82 4.85L90.82-11.59L93.96-11.59L93.96-8.54L93.43-5.74L93.94-2.93L93.94 4.85ZM96.70-2.66L96.70-2.66Q97.56-2.66 98.23-3.06Q98.90-3.46 99.28-4.16Q99.65-4.87 99.65-5.81L99.65-5.81Q99.65-6.72 99.28-7.43Q98.90-8.14 98.23-8.53Q97.56-8.93 96.70-8.93L96.70-8.93Q95.86-8.93 95.18-8.53Q94.51-8.14 94.14-7.43Q93.77-6.72 93.77-5.81L93.77-5.81Q93.77-4.87 94.14-4.16Q94.51-3.46 95.17-3.06Q95.83-2.66 96.70-2.66Z" fill="#212121"/></g>
</svg>